<?xml version="1.0" encoding="UTF-8" standalone="no"?>
<svg id="svg4497" xmlns:rdf="http://www.w3.org/1999/02/22-rdf-syntax-ns#" xmlns="http://www.w3.org/2000/svg" height="158.03mm" width="303.24mm" version="1.1" xmlns:cc="http://creativecommons.org/ns#" xmlns:xlink="http://www.w3.org/1999/xlink" viewBox="0 0 1074.4814 559.96444" xmlns:dc="http://purl.org/dc/elements/1.1/">
<defs id="defs4499">
<linearGradient id="linearGradient4445" y2="382.63" gradientUnits="userSpaceOnUse" x2="598.15" y1="382.63" x1="199.42">
<stop id="stop4441" stop-color="#7c0000" offset="0"/>
<stop id="stop4443" stop-color="#e4bc00" offset="1"/>
</linearGradient>
</defs>
<g id="layer1" transform="translate(1871.5 296.19)">
<g id="g4450" transform="matrix(2.1131 0 0 -2.1131 -2095 744.5)">
<path id="path22" d="m329.89 406.51c0.645 1.222 0.111 2.769-1.191 3.456-1.303 0.688-2.881 0.255-3.526-0.967-0.543-1.029-0.242-2.283 0.644-3.065l-7.432-14.081 1.326-0.7 7.455 14.123c1.093-0.204 2.208 0.255 2.724 1.234" fill="#514040"/>
<path id="path26" d="m382.99 406.99c0 10.125-5.548 19.596-12.124 18.333-3.998-0.768-8.864-3.534-8.864-13.659 0 0-0.735-23.007 5.778-23.007h3.086c6.696 0 12.124 8.208 12.124 18.333" fill="#514040"/>
<path id="path30" d="m289.87 258.77-7.886-3.172-25.001 62.16 7.886 3.172 25.001-62.16z" fill="#7f7f7f"/>
<path id="path34" d="m559.95 464.76c-21.091 0-40.115-21.929-42.633-47.595l-136.53 0.82v-7.153c0-5.184-4.001-9.447-9.124-9.949l-42.639-0.635c-5.599 0-10.138 4.478-10.138 10l-0.549 6.87-118.91 0.713v-117.33s84.757 5.595 220.61 39.928c168.06 42.471 176.75 54 178.1 91.001 0.673 18.397-17.097 33.333-38.188 33.333" fill="url(#linearGradient4445)"/>
<path id="path38" d="m147.75 370.8c0 4.786-9.402 8.666-21 8.666-1.822 0-3.58-0.105-5.265-0.285 1.919 8.659 20.245 93.699-0.162 94.945-20.76 1.268-2.042-86.36-0.152-94.979-8.886-1.009-15.421-4.36-15.421-8.347 0-3.988 6.535-7.339 15.422-8.348-1.89-8.614-20.609-96.248 0.151-94.98 20.407 1.246 2.08 86.293 0.162 94.947 1.685-0.181 3.443-0.286 5.265-0.286 11.598 0 21 3.88 21 8.667" fill="#474242"/>
<path id="path42" d="m124.42 370.8c0-11.229 9.104-20.333 20.333-20.333h15c11.23 0 20.334 9.104 20.334 20.333 0 11.23-9.104 20.334-20.334 20.334h-15c-11.229 0-20.333-9.104-20.333-20.334" fill="#c10000"/>
<path id="path46" d="m199.42 417.5h-20.833c-20.895 0-23.834 2.062-23.834-18.833v-75.334c0-20.895 1.939-22.833 22.834-22.833h21.833v117z" fill="#a39f9f"/>
<path id="path50" d="m239.9 383.12c-2.8762 0-5.207 2.3315-5.207 5.209 0 2.8762 2.3308 5.207 5.207 5.207 2.8775 0 5.209-2.3308 5.209-5.207 0-2.8775-2.3315-5.209-5.209-5.209zm0 13.75c-2.8762 0-5.207 2.3315-5.207 5.209 0 2.8762 2.3308 5.207 5.207 5.207 2.8775 0 5.209-2.3308 5.209-5.207 0-2.8775-2.3315-5.209-5.209-5.209zm0 13.75c-2.8762 0-5.207 2.3315-5.207 5.209 0 2.8762 2.3308 5.207 5.207 5.207 2.8775 0 5.209-2.3308 5.209-5.207 0-2.8775-2.3315-5.209-5.209-5.209zm0 13.75c-2.8762 0-5.207 2.3315-5.207 5.209 0 2.8762 2.3308 5.207 5.207 5.207 2.8775 0 5.209-2.3308 5.209-5.207 0-2.8775-2.3315-5.209-5.209-5.209zm0 13.75c-2.8762 0-5.207 2.3315-5.207 5.209 0 2.8762 2.3308 5.207 5.207 5.207 2.8775 0 5.209-2.3308 5.209-5.207 0-2.8775-2.3315-5.209-5.209-5.209zm0 15c-2.8762 0-5.207 2.3315-5.207 5.209 0 2.8762 2.3308 5.207 5.207 5.207 2.8775 0 5.209-2.3308 5.209-5.207 0-2.8775-2.3315-5.209-5.209-5.209zm0 13.75c-2.8762 0-5.207 2.3315-5.207 5.209 0 2.8762 2.3308 5.207 5.207 5.207 2.8775 0 5.209-2.3308 5.209-5.207 0-2.8775-2.3315-5.209-5.209-5.209zm0 13.75c-2.8762 0-5.207 2.3315-5.207 5.209 0 2.8762 2.3308 5.207 5.207 5.207 2.8775 0 5.209-2.3308 5.209-5.207 0-2.8775-2.3315-5.209-5.209-5.209zm0 13.75c-2.8762 0-5.207 2.3315-5.207 5.209 0 2.8762 2.3308 5.207 5.207 5.207 2.8775 0 5.209-2.3308 5.209-5.207 0-2.8775-2.3315-5.209-5.209-5.209zm0 13.75c-2.8762 0-5.207 2.3315-5.207 5.209 0 2.8762 2.3308 5.207 5.207 5.207 2.8775 0 5.209-2.3308 5.209-5.207 0-2.8775-2.3315-5.209-5.209-5.209z" transform="matrix(.8 0 0 -.8 0 720)" fill="#595959"/>
<path id="path78" d="m554.9 381.88c-2.8762 0-5.207 2.3315-5.207 5.209 0 2.8762 2.3308 5.207 5.207 5.207 2.8775 0 5.209-2.3308 5.209-5.207 0-2.8775-2.3315-5.209-5.209-5.209zm0 13.75c-2.8762 0-5.207 2.3315-5.207 5.209 0 2.8762 2.3308 5.207 5.207 5.207 2.8775 0 5.209-2.3308 5.209-5.207 0-2.8775-2.3315-5.209-5.209-5.209zm0 13.75c-2.8762 0-5.207 2.3315-5.207 5.209 0 2.8762 2.3308 5.207 5.207 5.207 2.8775 0 5.209-2.3308 5.209-5.207 0-2.8775-2.3315-5.209-5.209-5.209zm0 13.75c-2.8762 0-5.207 2.3315-5.207 5.209 0 2.8762 2.3308 5.207 5.207 5.207 2.8775 0 5.209-2.3308 5.209-5.207 0-2.8775-2.3315-5.209-5.209-5.209zm0 13.75c-2.8762 0-5.207 2.3315-5.207 5.209 0 2.8762 2.3308 5.207 5.207 5.207 2.8775 0 5.209-2.3308 5.209-5.207 0-2.8775-2.3315-5.209-5.209-5.209zm0 15c-2.8762 0-5.207 2.3315-5.207 5.209 0 2.8762 2.3308 5.207 5.207 5.207 2.8775 0 5.209-2.3308 5.209-5.207 0-2.8775-2.3315-5.209-5.209-5.209z" transform="matrix(.8 0 0 -.8 0 720)" fill="#c4c4c4"/>
<path id="path114" d="m318.76 417.38c2.492 3.868 13.242 9.993 2.492 27.993-23.375 4.25-43.5-13.542-43.5-27.625 0-0.047 5.792-1.257 11.5-5.625 11.509-8.806 29.499-2.213 29.501-2.291l0.007 7.548z" fill="#b5b4b4"/>
<path id="path118" d="m613.97 393.76c-10.637-1.658-35.357 0.69-60.227 0.69-24.871 0-41.993-2.381-41.993 2.349s0.408 8.702 25.278 8.702c24.871 0 81.615-11.012 76.942-11.741" fill="#ffe402"/>
<path id="path122" d="m248.56 370.29-7.886-3.172-43.508 108.18 7.886 3.172 43.508-108.18z" fill="#7f7f7f"/>
<path id="path126" d="m311.21 368.2-7.886-3.172-46.208 114.89 7.886 3.172 46.208-114.89z" fill="#7f7f7f"/>
<path id="path130" d="m257.5 284.38c-56.264 0-57.188 8.9862-57.188 19.688 0 10.701 38.736 5.3125 95 5.3125s112.19 5.3125 136.25 1.5625c10.572-1.6475-117.8-26.562-174.06-26.562zm61.562 146.88c-56.264 0-57.188 8.9862-57.188 19.688 0 10.701 38.736 5.3125 95 5.3125s112.19 5.3125 136.25 1.5625c10.58-1.66-117.79-26.57-174.05-26.57zm13.816 113.44c-28.965 0-29.441 14.824-29.441 32.477 0 17.651 19.941 8.7617 48.906 8.7617s57.755 8.7644 70.143 2.5781c5.4425-2.7188-60.642-43.816-89.607-43.816z" transform="matrix(.8 0 0 -.8 0 720)" fill="#c60000"/>
<path id="path138" d="m307.5 252.25c0-13.669-11.081-24.75-24.75-24.75s-24.75 11.081-24.75 24.75 11.081 24.75 24.75 24.75 24.75-11.081 24.75-24.75"/>
<path id="path142" d="m298.25 252.25c0-8.561-6.94-15.5-15.5-15.5s-15.5 6.939-15.5 15.5 6.94 15.5 15.5 15.5 15.5-6.939 15.5-15.5" fill="#7f7f7f"/>
</g>
</g>
</svg>
